<?xml version="1.0" encoding="utf-8"?>
<!-- Generator: Adobe Illustrator 19.0.0, SVG Export Plug-In . SVG Version: 6.00 Build 0)  -->
<svg version="1.1" id="Layer_1" xmlns="http://www.w3.org/2000/svg" xmlns:xlink="http://www.w3.org/1999/xlink" x="0px" y="0px"
	 viewBox="-235 381 140 32" style="enable-background:new -235 381 140 32;" xml:space="preserve">
<style type="text/css">
	.st0{fill:#FFFFFF;}
	.st1{fill:#FFFFFF;stroke:#FFFFFF;stroke-width:2;stroke-miterlimit:10;}
	.st2{fill:#FFFFFF;stroke:#FFFFFF;stroke-miterlimit:10;}
	.st3{fill:none;}
	.st4{font-family:'MyriadPro-Regular';}
	.st5{font-size:24px;}
	.st6{fill:#F9A21A;}
	.st7{font-size:36px;}
</style>
<g>
	<g>
		<path class="st0" d="M-225.8,349.5c-0.6,0.5-1,1.2-1,2.1s0.4,1.6,1.2,2.1c0.8,0.5,2.6,1.1,5.5,1.8c2.9,0.7,5.1,1.8,6.7,3.2
			c1.6,1.4,2.4,3.5,2.4,6.2c0,2.7-1,4.9-3,6.6c-2,1.7-4.7,2.5-8,2.5c-4.8,0-9.1-1.8-12.9-5.3l4-4.9c3.3,2.9,6.3,4.3,9,4.3
			c1.2,0,2.2-0.3,2.9-0.8c0.7-0.5,1.1-1.3,1.1-2.2s-0.4-1.6-1.1-2.2c-0.7-0.5-2.2-1.1-4.4-1.6c-3.5-0.8-6.1-1.9-7.7-3.3
			c-1.6-1.3-2.4-3.4-2.4-6.3c0-2.9,1-5.1,3.1-6.6c2.1-1.6,4.6-2.3,7.7-2.3c2,0,4,0.3,6,1c2,0.7,3.8,1.7,5.3,2.9l-3.4,4.9
			c-2.6-2-5.3-3-8.1-3C-224.2,348.7-225.1,349-225.8,349.5z"/>
		<path class="st0" d="M-184.2,343.5h6.7v30.2h-6.7l-14.4-18.9v18.9h-6.7v-30.2h6.3l14.8,19.4C-184.2,363-184.2,343.5-184.2,343.5z"
			/>
	</g>
	<g>
		<g>
			<path class="st0" d="M-131.3,360.9l5.4-17.4h7l5.3,17.4l6-17.4h7.3l-10.5,30.2h-5l-6.6-21l-6.6,21h-5l-10.5-30.2h7.3
				L-131.3,360.9z"/>
		</g>
		<g>
			<path class="st1" d="M-153.1,360.2c-1.7,1.7-3.9,2.5-6.4,2.5c-2.5,0-4.7-0.9-6.4-2.5c-1.7-1.7-2.6-3.8-2.6-6.3
				c0-2.5,0.9-4.6,2.6-6.3c1.7-1.7,3.9-2.5,6.4-2.5c2.5,0,4.7,0.8,6.4,2.5c1.7,1.7,2.6,3.8,2.6,6.3
				C-150.5,356.4-151.3,358.5-153.1,360.2z M-154.4,353.9c0-1.5-0.5-2.8-1.5-3.9c-1-1.1-2.2-1.6-3.6-1.6c-1.4,0-2.6,0.5-3.6,1.6
				c-1,1.1-1.5,2.4-1.5,3.9s0.5,2.8,1.5,3.9c1,1.1,2.2,1.6,3.6,1.6c1.4,0,2.6-0.5,3.6-1.6C-154.9,356.8-154.4,355.5-154.4,353.9z"/>
		</g>
		<g>
			<path class="st2" d="M-150.3,370.6v1.5h-17.2v-1.5H-150.3z"/>
		</g>
	</g>
</g>
<rect x="-218.6" y="381" class="st3" width="140" height="32"/>
<text transform="matrix(1 0 0 1 -218.5877 406.5596)"><tspan x="0" y="0" class="st0 st4 st5">Our</tspan><tspan x="37.6" y="0" class="st6 st4 st5">Family</tspan><tspan x="103.5" y="0" class="st6 st4 st7"> </tspan></text>
</svg>
